HIERARCHY
ROOT Hips
{
	OFFSET 0.00 0.00 0.00
	CHANNELS 6 Xposition Yposition Zposition Xrotation Yrotation Zrotation
	JOINT Spine
	{
		OFFSET 0.00000 5.01565 0.00000
		CHANNELS 3 Xrotation Yrotation Zrotation
		JOINT Head
		{
			OFFSET 0.00000 15.98052 0.00000
			CHANNELS 3 Xrotation Yrotation Zrotation
			End Site
			{
				OFFSET 0.00000 4.52755 0.00000
			}
		}
		JOINT LeftShoulder
		{
			OFFSET 0.00000 12.16271 0.00000
			CHANNELS 3 Xrotation Yrotation Zrotation
			JOINT LeftArm
			{
				OFFSET 7.20587 0.00000 0.00000
				CHANNELS 3 Xrotation Yrotation Zrotation
				JOINT LeftForeArm
				{
					OFFSET 10.78671 0.00000 0.00000
					CHANNELS 3 Yrotation Zrotation Xrotation
					JOINT LeftHand
					{
						OFFSET 7.94603 0.00000 0.00000
						CHANNELS 3 Xrotation Yrotation Zrotation
						JOINT LeftHandThumb1
						{
							OFFSET 0.00000 0.00000 0.00000
							CHANNELS 3 Xrotation Zrotation Yrotation
							End Site
							{
								OFFSET 0.00000 0.00000 3.93700
							}
						}
						End Site
						{
							OFFSET 3.93700 0.00000 0.00000
						}
					}
				}
			}
		}
		JOINT RightShoulder
		{
			OFFSET 0.00000 12.16271 0.00000
			CHANNELS 3 Xrotation Yrotation Zrotation
			JOINT RightArm
			{
				OFFSET -7.20587 0.00000 0.00000
				CHANNELS 3 Xrotation Yrotation Zrotation
				JOINT RightForeArm
				{
					OFFSET -10.78671 0.00000 0.00000
					CHANNELS 3 Yrotation Zrotation Xrotation
					JOINT RightHand
					{
						OFFSET -7.94603 0.00000 0.00000
						CHANNELS 3 Xrotation Yrotation Zrotation
						JOINT RightHandThumb1
						{
							OFFSET 0.00000 0.00000 0.00000
							CHANNELS 3 Xrotation Zrotation Yrotation
							End Site
							{
								OFFSET 0.00000 0.00000 3.93700
							}
						}
						End Site
						{
							OFFSET -3.93700 0.00000 0.00000
						}
					}
				}
			}
		}
	}
	JOINT LeftUpLeg
	{
		OFFSET 4.27514 0.00000 0.00000
		CHANNELS 3 Xrotation Yrotation Zrotation
		JOINT LeftLeg
		{
			OFFSET 0.00000 -17.04666 0.00000
			CHANNELS 3 Xrotation Yrotation Zrotation
			JOINT LeftFoot
			{
				OFFSET 0.00000 -17.45844 0.00000
				CHANNELS 3 Xrotation Yrotation Zrotation
				JOINT LeftToeBase
				{
					OFFSET 0.00000 -1.31982 4.92565
					CHANNELS 3 Xrotation Yrotation Zrotation
					End Site
					{
						OFFSET 0.00000 0.00000 2.95275
					}
				}
			}
		}
	}
	JOINT RightUpLeg
	{
		OFFSET -4.27514 0.00000 0.00000
		CHANNELS 3 Xrotation Yrotation Zrotation
		JOINT RightLeg
		{
			OFFSET 0.00000 -17.04666 0.00000
			CHANNELS 3 Xrotation Yrotation Zrotation
			JOINT RightFoot
			{
				OFFSET 0.00000 -17.45844 0.00000
				CHANNELS 3 Xrotation Yrotation Zrotation
				JOINT RightToeBase
				{
					OFFSET 0.00000 -1.31982 4.92565
					CHANNELS 3 Xrotation Yrotation Zrotation
					End Site
					{
						OFFSET 0.00000 0.00000 2.95275
					}
				}
			}
		}
	}
}
MOTION
Frames: 7
Frame Time: 0.008333
 -3.7343 35.8167 -14.1543 -5.4443 -25.8089 -15.0180 9.8964 0.8426 3.0574 -5.0050 13.2712 21.4015 -3.7151 29.0586 3.4405 -21.0748 41.3407 -47.4449 -115.1062 -0.0000 10.9942 1.5171 -1.3636 48.0587 33.1476 -0.0000 26.2537 -7.5669 2.0097 8.1411 -9.7067 37.1993 77.4107 20.7270 -0.0000 54.9116 -1.7596 3.0786 29.7704 32.8623 0.0000 -24.3270 -0.8912 21.5638 -0.2848 7.7103 -0.0000 -0.0000 -30.9927 32.1743 13.3976 23.6875 -0.0000 0.0000 -81.4469 -7.6530 -37.2277 76.3084 0.0000 0.0000 28.0547 -37.9276 -12.8977 26.5597 -0.0000 -0.0000
 -3.7547 35.8193 -14.1665 -5.4703 -25.8036 -15.0023 9.9158 0.7742 3.0094 -5.0890 13.3675 21.3766 -3.6886 29.0713 3.4540 -21.0767 41.1428 -47.3961 -114.9845 -0.0000 10.9840 1.5922 -1.4455 47.7753 33.1476 -0.0000 26.2537 -7.5610 2.0536 8.1152 -9.7909 37.0951 77.4612 20.7782 -0.0000 54.9550 -1.7328 3.0227 29.8423 32.8623 0.0000 -24.3270 -0.8801 21.5526 -0.2710 7.7221 -0.0000 -0.0000 -30.9681 32.1999 13.3603 23.6384 -0.0000 0.0000 -81.6047 -7.6344 -37.2035 76.6771 -0.0000 -0.0000 27.7551 -38.1107 -13.0821 26.5274 0.0000 -0.0000
 -3.7753 35.8218 -14.1750 -5.5629 -25.8263 -15.0100 9.9868 0.7383 2.9501 -5.1611 13.4252 21.3371 -3.6647 29.0760 3.4708 -21.0531 40.9289 -47.3219 -114.8816 -0.0000 10.8313 1.5838 -1.4256 48.0188 33.1476 -0.0000 26.2537 -7.5896 2.0933 8.0940 -9.8368 36.9699 77.5093 20.8253 -0.0000 54.7995 -1.7382 3.0495 29.7012 32.8623 0.0000 -24.3270 -0.7806 21.6006 -0.2741 7.6902 -0.0000 -0.0000 -30.9390 32.2106 13.3247 23.6609 -0.0000 -0.0000 -81.6987 -7.6115 -37.1454 77.0301 0.0000 -0.0000 27.3564 -38.3600 -13.3279 26.4251 -0.0000 0.0000
 -3.7969 35.8235 -14.1857 -5.6085 -25.9002 -14.9934 9.9931 0.7680 2.8724 -5.2332 13.4383 21.3375 -3.6006 29.0482 3.4822 -21.0219 40.6882 -47.2569 -114.8407 -0.0000 10.6284 1.3634 -1.2108 48.4014 33.1476 -0.0000 26.2537 -7.5970 2.0799 8.0842 -9.9149 36.7906 77.5738 20.8872 -0.0000 54.7042 -1.6750 2.9595 29.5271 32.8623 0.0000 -24.3270 -0.7228 21.6712 -0.2810 7.6435 -0.0000 -0.0000 -30.9095 32.2127 13.3423 23.6685 0.0000 0.0000 -81.8299 -7.5951 -37.0291 77.3636 0.0000 -0.0000 26.8422 -38.6056 -13.6331 26.3293 -0.0000 -0.0000
 -3.8185 35.8232 -14.1952 -5.6567 -25.9741 -14.9491 10.0024 0.7879 2.7582 -5.3140 13.4506 21.3520 -3.5735 29.0227 3.5515 -20.9641 40.4964 -47.2194 -114.7301 -0.0000 10.5520 1.4803 -1.2993 48.7339 33.1476 -0.0000 26.2537 -7.6717 2.0440 8.0771 -9.9470 36.5846 77.6545 20.9576 -0.0000 54.8380 -1.7095 2.9939 29.7439 32.8623 0.0000 -24.3270 -0.6513 21.6921 -0.3237 7.6021 0.0000 -0.0000 -30.8922 32.2583 13.3591 23.6387 -0.0000 0.0000 -81.9594 -7.5611 -36.9306 77.7079 -0.0000 0.0000 26.2628 -38.7898 -13.9543 26.0670 -0.0000 0.0000
 -3.8408 35.8229 -14.2027 -5.7533 -26.0629 -14.9152 10.0457 0.7859 2.6219 -5.3735 13.5429 21.4080 -3.4932 29.0211 3.5774 -20.9042 40.3463 -47.1319 -114.6067 -0.0000 10.4565 1.5694 -1.3890 48.4989 33.1476 -0.0000 26.2537 -7.6410 2.0926 8.0821 -10.0488 36.3556 77.7199 20.9941 -0.0000 54.6209 -1.7112 3.0111 29.6284 32.8623 0.0000 -24.3270 -0.5270 21.7074 -0.3838 7.5549 -0.0000 -0.0000 -30.8860 32.3547 13.3369 23.6385 -0.0000 0.0000 -82.0756 -7.5541 -36.8265 78.0353 -0.0000 0.0000 25.7445 -39.0089 -14.1924 25.8162 0.0000 -0.0000
 -3.8628 35.8236 -14.2106 -5.8384 -26.1736 -14.8755 10.0877 0.7797 2.4733 -5.4804 13.6288 21.5031 -3.4376 29.0509 3.6204 -20.9251 40.2005 -47.0445 -114.5511 -0.0000 10.2226 1.4748 -1.2976 48.6662 33.1476 -0.0000 26.2537 -7.7126 2.1012 8.0918 -10.0613 36.1595 77.8174 21.0460 -0.0000 54.4776 -1.6313 2.8974 29.3976 32.8623 0.0000 -24.3270 -0.3799 21.7114 -0.4574 7.4438 -0.0000 -0.0000 -30.8468 32.4388 13.3695 23.6131 -0.0000 0.0000 -82.2078 -7.5722 -36.7121 78.3497 0.0000 0.0000 25.2933 -39.1495 -14.3897 25.6356 0.0000 -0.0000
